<svg xmlns="http://www.w3.org/2000/svg" width="150" height="149.999" viewBox="0 0 150 149.999"><defs><style>.a{fill:#5b5b5b;}</style></defs><g transform="translate(-0.001)"><path class="a" d="M147.168,22.8l1.975-1.975A2.93,2.93,0,0,0,145,16.679l-1.975,1.975-1.974-1.974a2.93,2.93,0,0,0-2.072-.858h-3.222L120.793.858A2.931,2.931,0,0,0,118.722,0H10.552A10.563,10.563,0,0,0,0,10.551v54.9A10.563,10.563,0,0,0,10.552,76H36.075L18.912,93.166a10.551,10.551,0,0,0,0,14.921l38.822,38.821a10.551,10.551,0,0,0,14.921,0l29.076-29.075a2.93,2.93,0,0,0-4.143-4.143L68.511,142.765a4.691,4.691,0,0,1-6.635,0L23.055,103.944a4.691,4.691,0,0,1,0-6.634L98.684,21.682h39.082l1.116,1.116-6.775,6.774a8.793,8.793,0,1,0,4.143,4.143l6.775-6.774,1.116,1.116V67.137L116.231,95.046a2.93,2.93,0,0,0,4.143,4.143l28.767-28.767A2.93,2.93,0,0,0,150,68.351V26.842a2.93,2.93,0,0,0-.858-2.072ZM52.612,52.568a2.931,2.931,0,1,1,2.931-2.931A2.934,2.934,0,0,1,52.612,52.568ZM97.471,15.822a2.93,2.93,0,0,0-2.072.858L61.329,50.75a8.809,8.809,0,1,0-7.6,7.6l-11.79,11.79H10.552A4.7,4.7,0,0,1,5.86,65.452v-54.9a4.7,4.7,0,0,1,4.692-4.692H117.508l9.963,9.963Zm30.85,24.609a2.93,2.93,0,1,1,1.777-5.253,2.638,2.638,0,0,0,.546.546,2.925,2.925,0,0,1-2.323,4.707Z"/><path class="a" d="M285.533,241.7a2.93,2.93,0,0,0,2.072-.858l6.629-6.629a2.93,2.93,0,0,0-4.143-4.143l-4.557,4.558-14.5-14.5a2.93,2.93,0,1,0-4.143,4.143l16.573,16.573a2.931,2.931,0,0,0,2.072.858Z" transform="translate(-188.092 -155.03)"/><path class="a" d="M344.316,165.987a2.931,2.931,0,0,0-4.143,0l-3.729,3.729-4.143-4.143,3.729-3.729a2.93,2.93,0,0,0-4.143-4.143l-3.729,3.729-4.143-4.143,3.729-3.729a2.93,2.93,0,0,0-4.143-4.143l-5.8,5.8a2.93,2.93,0,0,0,0,4.143l16.573,16.573a2.93,2.93,0,0,0,4.143,0l5.8-5.8a2.929,2.929,0,0,0,0-4.143Z" transform="translate(-224.087 -105.035)"/><path class="a" d="M242.92,282.661a2.93,2.93,0,1,0,2.66-5.221l-21.959-11.187a2.929,2.929,0,0,0-3.94,3.94l11.187,21.959a2.93,2.93,0,0,0,5.221-2.66l-.9-1.764,5.967-5.967Zm-10.527-.421-3.4-6.673,6.674,3.4Z" transform="translate(-155.095 -188.026)"/><path class="a" d="M167.706,338.321a2.93,2.93,0,1,0,4.143,4.143l4.143-4.143a8.788,8.788,0,0,0-11.9-12.911,2.919,2.919,0,0,0-.309.265l-.217.216a2.93,2.93,0,0,1-4.143-4.143l4.143-4.143a2.93,2.93,0,0,0-4.143-4.143l-4.143,4.143A8.789,8.789,0,0,0,167.7,330.041l.006-.006a2.93,2.93,0,1,1,4.143,4.143Z" transform="translate(-107.968 -221.023)"/><path class="a" d="M115.188,63.643a2.93,2.93,0,0,0-3.991,1.111L92.3,98.226a2.93,2.93,0,1,0,5.1,2.88l18.9-33.473A2.929,2.929,0,0,0,115.188,63.643Z" transform="translate(-64.991 -44.73)"/><path class="a" d="M82.749,68.784a8.79,8.79,0,1,0-8.79,8.79A8.8,8.8,0,0,0,82.749,68.784Zm-11.721,0a2.931,2.931,0,1,1,2.931,2.931A2.934,2.934,0,0,1,71.028,68.784Z" transform="translate(-46.076 -42.418)"/><path class="a" d="M364.921,353.319a2.931,2.931,0,1,0,2.071.859A2.946,2.946,0,0,0,364.921,353.319Z" transform="translate(-255.939 -249.81)"/></g></svg>