<svg xmlns="http://www.w3.org/2000/svg" width="150" height="150" viewBox="0 0 150 150"><defs><style>.a{fill:#5b5b5b;}</style></defs><g transform="translate(0 0)"><path class="a" d="M149.3,16.609l-4.113-8.847A12.917,12.917,0,0,0,133.516,0H107.578a2.285,2.285,0,0,0-2.2,2.364,2.284,2.284,0,0,0,2.2,2.364h25.938a8.57,8.57,0,0,1,7.743,5.148l4.113,8.847a2.483,2.483,0,0,1-.993,3.208,2.086,2.086,0,0,1-.992.254,2.2,2.2,0,0,1-1.991-1.322l-4.112-8.847a4.169,4.169,0,0,0-3.767-2.505H91.485V4.727h7.3a2.284,2.284,0,0,0,2.2-2.364A2.284,2.284,0,0,0,98.789,0H90.2A3.237,3.237,0,0,0,87.09,3.345v7.547A3.237,3.237,0,0,0,90.2,14.236h10.786v10.9h-.715a6.687,6.687,0,0,0-6.422,6.909V42.78H90.616c-8.822,0-16,7.719-16,17.208V84.706a2.2,2.2,0,1,0,4.395,0v-9.77h58v25.626H91.158l-3.065-5.749a5.449,5.449,0,0,0-4.765-2.969H56.214L45.742,72.333a12.509,12.509,0,0,0,4.132-6.674,13.24,13.24,0,0,0-1.162-9.49c-3.207-5.973-10.332-8.025-15.88-4.577a12.371,12.371,0,0,0-5.244,6.969,10.909,10.909,0,0,0-8.233,1.4,12.338,12.338,0,0,0-5.416,7.593,13.241,13.241,0,0,0,1.162,9.49,11.252,11.252,0,0,0,14.5,5.31l5.093,9.489H27.578a5.449,5.449,0,0,0-4.765,2.969l-2.451,4.6a2.463,2.463,0,0,0,.814,3.225,2.115,2.115,0,0,0,3-.874l2.451-4.6a1.09,1.09,0,0,1,.953-.593H54.885c.043,0,.087,0,.132,0H83.328a1.09,1.09,0,0,1,.953.593c1.466,2.75,10.53,19.754,12,22.5v11.082H14.628V119.67l5.174-9.706a2.461,2.461,0,0,0-.813-3.225,2.116,2.116,0,0,0-3,.874l-5.465,10.251a2.517,2.517,0,0,0-.291,1.176v11.713H6.4A6.665,6.665,0,0,0,0,137.637v5.477A6.664,6.664,0,0,0,6.4,150H133.566c4.325,0,7.843-3.783,7.843-8.433V59.989c0-9.488-7.175-17.208-16-17.208h-3.235V32.042a6.685,6.685,0,0,0-6.421-6.908h-.715v-10.9H133.4l4.063,8.74a6.553,6.553,0,0,0,5.922,3.936,6.272,6.272,0,0,0,2.956-.753,7.386,7.386,0,0,0,2.958-9.55ZM32.345,78.019a2.221,2.221,0,0,0-1.4-1.119,2.073,2.073,0,0,0-1.717.329c-.149.106-.3.209-.443.3a6.971,6.971,0,0,1-9.881-2.849,8.237,8.237,0,0,1-.722-5.9,7.675,7.675,0,0,1,3.37-4.724,6.787,6.787,0,0,1,6.743-.276,2.064,2.064,0,0,0,2.045-.086,2.389,2.389,0,0,0,1.093-1.863,7.869,7.869,0,0,1,3.6-6.146,6.969,6.969,0,0,1,9.877,2.848,8.12,8.12,0,0,1-2.636,10.622c-.157.1-.318.186-.476.271a2.324,2.324,0,0,0-1.122,1.434,2.514,2.514,0,0,0,.2,1.861L51.14,91.844H39.765Zm-27.951,65.1v-5.477A2.088,2.088,0,0,1,6.4,135.48h98.107a2.088,2.088,0,0,1,2.005,2.157v5.477a2.089,2.089,0,0,1-1.983,2.157H6.4a2.089,2.089,0,0,1-2.005-2.158Zm129.172,2.157H110.584a7.341,7.341,0,0,0,.322-2.157v-5.477a6.663,6.663,0,0,0-6.4-6.884h-3.834V119.04a2.51,2.51,0,0,0-.291-1.176l-6.7-12.574h43.337v36.275a3.588,3.588,0,0,1-3.448,3.706Zm3.448-85.283V70.209h-58V59.988c0-6.882,5.206-12.481,11.6-12.481h34.8c6.4,0,11.6,5.6,11.6,12.481ZM117.782,32.041V42.78H98.243V32.041a2.111,2.111,0,0,1,2.028-2.18h15.485a2.11,2.11,0,0,1,2.027,2.18Zm-7.137-6.908h-5.267v-10.9h5.267Zm0,0" transform="translate(0 0)"/><path class="a" d="M175.605,338.032c0-5.739-4.341-10.408-9.676-10.408s-9.675,4.668-9.675,10.408,4.341,10.409,9.675,10.409S175.605,343.772,175.605,338.032Zm-14.956,0a5.294,5.294,0,1,1,5.28,5.681A5.5,5.5,0,0,1,160.649,338.032Zm0,0" transform="translate(-110.477 -224.371)"/></g></svg>