<svg xmlns="http://www.w3.org/2000/svg" width="150" height="150" viewBox="0 0 150 150"><defs><style>.a{fill:#5b5b5b;}</style></defs><g transform="translate(-0.001 0)"><path class="a" d="M121.11,255.633a2.051,2.051,0,1,1-2.051-2.051A2.05,2.05,0,0,1,121.11,255.633Zm0,0" transform="translate(-82.728 -179.291)"/><path class="a" d="M121.11,286.633a2.051,2.051,0,1,1-2.051-2.051A2.05,2.05,0,0,1,121.11,286.633Zm0,0" transform="translate(-82.728 -201.209)"/><path class="a" d="M265.11,255.633a2.051,2.051,0,1,1-2.051-2.051A2.05,2.05,0,0,1,265.11,255.633Zm0,0" transform="translate(-184.54 -179.291)"/><path class="a" d="M265.11,286.633a2.051,2.051,0,1,1-2.051-2.051A2.05,2.05,0,0,1,265.11,286.633Zm0,0" transform="translate(-184.54 -201.209)"/><path class="a" d="M126.627,183.8a2.2,2.2,0,0,0,0,4.395h8.789a2.2,2.2,0,0,0,0-4.395Zm0,0" transform="translate(-87.975 -129.95)"/><path class="a" d="M224.627,188.192h8.789a2.2,2.2,0,0,0,0-4.395h-8.789a2.2,2.2,0,0,0,0,4.395Zm0,0" transform="translate(-157.265 -129.95)"/><path class="a" d="M143.409,109.863h-6.592V72.36a7.762,7.762,0,0,0,0-14.89V14.308A11.223,11.223,0,0,0,125.605,3.1H115.316a2.2,2.2,0,0,0-1.554.644l-5.344,5.348-7.161-7.161a6.592,6.592,0,0,0-9.322,9.322l17.388,17.388a6.592,6.592,0,0,0,9.322-9.322L111.524,12.2l4.7-4.7h9.378a6.824,6.824,0,0,1,6.817,6.815V57.47a7.762,7.762,0,0,0,0,14.89v37.5H121.875a2.2,2.2,0,0,0,0,4.395h21.533a2.2,2.2,0,1,1,0,4.395H6.592a2.2,2.2,0,1,1,0-4.395H112.427a2.2,2.2,0,0,0,0-4.395H95.239a17.1,17.1,0,0,0,1.883-7.793V89.378h.405a11.033,11.033,0,0,0,11.021-11.021V67.749A23.83,23.83,0,0,0,85.989,44,13.9,13.9,0,0,0,75,38.613H71.757a2.2,2.2,0,1,0,0,4.395H75a9.532,9.532,0,0,1,9.521,9.521V65.708c-.415-.038-.837-.061-1.262-.061h-14a8.071,8.071,0,0,0-7.446-4.979H53.03a8.069,8.069,0,0,0-7.444,4.979h-14c-.425,0-.845.023-1.259.061V52.529a9.532,9.532,0,0,1,9.521-9.521H62.419a2.2,2.2,0,0,0,0-4.395H39.848A13.894,13.894,0,0,0,28.862,44,23.827,23.827,0,0,0,6.3,67.749V78.358A11.033,11.033,0,0,0,17.323,89.378h.405v1.979a2.2,2.2,0,0,0,4.395,0V79.509a9.479,9.479,0,0,1,6.6-9.023q.055-.015.11-.034a9.42,9.42,0,0,1,2.751-.41H44.975v7.472a8.066,8.066,0,0,0,8.057,8.057h2.2v10.84H41.5c-2.607,0-4.728-1.774-4.728-3.955a2.2,2.2,0,1,0-4.395,0c0,4.6,4.092,8.35,9.122,8.35H73.351c5.03,0,9.122-3.746,9.122-8.35a2.2,2.2,0,0,0-4.395,0c0,2.181-2.121,3.955-4.728,3.955H59.622V85.571h2.2a8.066,8.066,0,0,0,8.057-8.057V70.042H83.262a9.438,9.438,0,0,1,2.76.412l.095.03a9.482,9.482,0,0,1,6.61,9.025V102.07a12.735,12.735,0,0,1-2.67,7.793H24.792a12.741,12.741,0,0,1-2.669-7.793v-1.289a2.2,2.2,0,1,0-4.395,0v1.289a17.1,17.1,0,0,0,1.883,7.793H6.592a6.592,6.592,0,0,0,0,13.184h.3A27.521,27.521,0,0,0,34.374,150h81.608a27.164,27.164,0,0,0,27.132-26.953h.3a6.592,6.592,0,0,0,0-13.184ZM116.181,23.98a2.2,2.2,0,0,1-3.75,1.554L95.041,8.146a2.2,2.2,0,0,1,3.107-3.108l17.389,17.389a2.184,2.184,0,0,1,.643,1.553Zm15.07,40.934a3.372,3.372,0,0,1,3.358-3.368h.023a3.369,3.369,0,1,1-3.381,3.368ZM17.729,79.509v5.475h-.405A6.633,6.633,0,0,1,10.7,78.358V67.749A19.429,19.429,0,0,1,26.47,48.707a13.862,13.862,0,0,0-.538,3.822V66.86a13.873,13.873,0,0,0-8.2,12.649Zm47.753-1.995a3.665,3.665,0,0,1-3.662,3.662H53.03a3.666,3.666,0,0,1-3.662-3.662V68.725a3.667,3.667,0,0,1,3.662-3.662h8.789a3.666,3.666,0,0,1,3.662,3.662ZM88.92,66.861V52.53a13.9,13.9,0,0,0-.538-3.821,19.433,19.433,0,0,1,15.772,19.041V78.358a6.635,6.635,0,0,1-6.627,6.627h-.4V79.509a13.877,13.877,0,0,0-8.2-12.648Zm27.062,78.744H34.374a23.124,23.124,0,0,1-23.088-22.559H138.72a22.765,22.765,0,0,1-22.738,22.559Zm0,0"/><path class="a" d="M306.558,87.189a2.189,2.189,0,0,0,1.554-.643l1.426-1.426a2.2,2.2,0,0,0-3.107-3.107L305,83.437a2.2,2.2,0,0,0,1.553,3.751Zm0,0" transform="translate(-215.192 -57.53)"/><path class="a" d="M338.917,112.93a2.2,2.2,0,0,0,2.094-1.534l.621-1.962a2.2,2.2,0,1,0-4.189-1.329l-.623,1.963a2.2,2.2,0,0,0,2.1,2.861Zm0,0" transform="translate(-238.07 -75.35)"/><path class="a" d="M279.52,56.767a2.167,2.167,0,0,0,.665-.1l1.963-.621a2.2,2.2,0,1,0-1.329-4.19l-1.962.623a2.2,2.2,0,0,0,.663,4.293Zm0,0" transform="translate(-196.076 -36.588)"/></g></svg>