<svg xmlns="http://www.w3.org/2000/svg" width="150" height="113" viewBox="0 0 150 113"><defs><style>.a{fill:#5b5b5b;}</style></defs><g transform="translate(0 -0.499)"><path class="a" d="M211.461,366.453a2.929,2.929,0,1,0,2.071.858A2.952,2.952,0,0,0,211.461,366.453Zm0,0" transform="translate(-147.438 -258.818)"/><path class="a" d="M122.375,58.485l-6.828-30.823a7.314,7.314,0,0,0,4.611-2.542,8.742,8.742,0,0,0,4.646,1.332h5.859a2.928,2.928,0,0,0,2.93-2.928V11.814a2.928,2.928,0,0,0-2.93-2.928H124.8a8.736,8.736,0,0,0-4.766,1.41,7.3,7.3,0,0,0-5.478-2.474H97.265a7.327,7.327,0,0,0-6.825,4.684H83.5a7.612,7.612,0,1,0,0,15.223h15.08v5.9a2.93,2.93,0,0,0,5.859,0v-5.9h5.127l7.354,33.2L103,85.707a8.606,8.606,0,0,1-7.487,4.372H60.766A24.644,24.644,0,0,0,36.328,68.406a24.384,24.384,0,0,0-15.191,5.241l-.017.014a24.445,24.445,0,0,0-9.237,16.418H5.866A38.823,38.823,0,0,1,44.65,52.029H65.433A2.979,2.979,0,0,1,68.408,55V81.3a2.928,2.928,0,0,0,2.93,2.928H86.927A17.465,17.465,0,0,0,104.4,66.782l.015-9.726a2.929,2.929,0,0,0-2.926-2.932h0a2.929,2.929,0,0,0-2.93,2.923l-.015,9.729A11.605,11.605,0,0,1,86.927,78.367H74.267V55a8.776,8.776,0,0,0-1.04-4.151,8.779,8.779,0,0,0-4.381-16.392H58.153a8.753,8.753,0,0,0-2.93.5V9.282A8.8,8.8,0,0,0,46.434.5h-18.9A27.572,27.572,0,0,0,.345,23.662a2.925,2.925,0,0,0-.136.883c0,.018,0,.035,0,.053A27.629,27.629,0,0,0,0,28.014V43.243a8.8,8.8,0,0,0,7.478,8.684l6.488,6.483A44.483,44.483,0,0,0,0,90.794v2.213a2.928,2.928,0,0,0,2.93,2.928H19.394a2.988,2.988,0,0,0-.058.586A16.892,16.892,0,0,0,23.5,107.635H2.93a2.928,2.928,0,1,0,0,5.855h33.06c.113,0,.225.009.339.009A17.006,17.006,0,0,0,53.32,96.519a2.988,2.988,0,0,0-.058-.586H95.511a14.478,14.478,0,0,0,11.626-5.864h3.71a16.92,16.92,0,0,0,2.887,17.566H75.741a2.928,2.928,0,1,0,0,5.855h50.482c.113,0,.225.009.339.009a16.971,16.971,0,0,0,15.715-23.43h4.793A2.928,2.928,0,0,0,150,87.142a28.722,28.722,0,0,0-27.625-28.657ZM58.153,40.316H68.846a2.928,2.928,0,1,1,0,5.855H58.153a2.928,2.928,0,1,1,0-5.855ZM5.859,28.014c0-.181.009-.36.014-.541H37.931a2.928,2.928,0,1,0,0-5.855H6.825A21.711,21.711,0,0,1,27.534,6.356h18.9a2.931,2.931,0,0,1,2.93,2.928v33.96a2.932,2.932,0,0,1-2.93,2.928H8.788a2.932,2.932,0,0,1-2.929-2.928Zm10,24.012h6.7a44.622,44.622,0,0,0-4.073,2.629Zm31.6,44.493a11.139,11.139,0,0,1-11.02,11.121c-.038,0-.076-.006-.113-.006H35.99A11.139,11.139,0,0,1,25.2,96.519a2.988,2.988,0,0,0-.058-.586H47.519a2.988,2.988,0,0,0-.058.586ZM17.8,90.079a18.622,18.622,0,0,1,6.945-11.816c.009-.006.017-.014.026-.019a18.575,18.575,0,0,1,11.561-3.983,18.785,18.785,0,0,1,18.53,15.818ZM124.8,14.742h2.93V20.6H124.8a2.928,2.928,0,1,1,0-5.855ZM81.738,20.119A1.759,1.759,0,0,1,83.5,18.362H89.95v2.058a7.335,7.335,0,0,0,.145,1.455H83.5a1.759,1.759,0,0,1-1.758-1.757Zm19.767,1.757h-4.24a1.457,1.457,0,0,1-1.456-1.455V15.133a1.457,1.457,0,0,1,1.456-1.455H114.56a1.457,1.457,0,0,1,1.456,1.455v5.288a1.457,1.457,0,0,1-1.456,1.455Zm36.19,74.644a11.139,11.139,0,0,1-11.02,11.121c-.038,0-.076-.006-.113-.006h-.338a11.12,11.12,0,0,1-8.733-17.566h18.141a11.1,11.1,0,0,1,2.062,6.45Zm-27.14-12.305,11.172-19.884a22.862,22.862,0,0,1,22.226,19.884Zm0,0" transform="translate(0 0)"/><path class="a" d="M339.389,149.523a2.928,2.928,0,1,0,0-5.855h-.01a2.928,2.928,0,1,0,.01,5.855Zm0,0" transform="translate(-237.883 -101.255)"/></g></svg>